<svg xmlns="http://www.w3.org/2000/svg" width="65.895" height="55" viewBox="0 0 65.895 55">
  <g id="Groupe_115" data-name="Groupe 115" transform="translate(-550.458 -1084.038)">
    <path id="Tracé_35" data-name="Tracé 35" d="M253.724,505.535l3.3,3.279,0,0,.318.315.093.092h0l6.187,6.128a1.794,1.794,0,0,0,2.515,0,1.74,1.74,0,0,0,0-2.483l-6.27-6.21-3.634-3.609a6.181,6.181,0,0,0-8.653-.012,6,6,0,0,0-1.468,2.33,6.185,6.185,0,0,0-7.628.8,5.984,5.984,0,0,0-1.592,2.738,6.182,6.182,0,0,0-6.553,1.342,5.989,5.989,0,0,0-1.413,2.186l-4.238-4.2a6.12,6.12,0,0,0-4.324-1.776h-.01a6.116,6.116,0,0,0-4.319,1.763,5.986,5.986,0,0,0-.013,8.544l16.406,16.248h0l1.611,1.6-4.38.56a6.483,6.483,0,0,0-4.318,2.448,6.324,6.324,0,0,0-1.3,4.746,6.49,6.49,0,0,0,6.448,5.6,6.588,6.588,0,0,0,.839-.054l22.136-2.827a19.2,19.2,0,0,0,12.633-5.493,1.74,1.74,0,0,0,0-2.483,1.794,1.794,0,0,0-2.515,0,15.633,15.633,0,0,1-10.349,4.475c-.051,0-.1.007-.154.013l-22.21,2.837a2.951,2.951,0,0,1-3.3-2.515,2.864,2.864,0,0,1,.589-2.152,2.94,2.94,0,0,1,1.958-1.11l7.96-1.016a1.774,1.774,0,0,0,1.455-1.173,1.742,1.742,0,0,0-.424-1.808l-3.746-3.71h0L218.551,514.3a2.506,2.506,0,0,1,.006-3.577,2.56,2.56,0,0,1,1.808-.738h0a2.565,2.565,0,0,1,1.811.744l17.937,17.764a1.814,1.814,0,0,0,.279.226c.032.02.067.033.1.052a1.782,1.782,0,0,0,.21.109c.04.016.082.023.122.036a1.747,1.747,0,0,0,.208.061c.044.009.09.008.135.013a1.754,1.754,0,0,0,.2.019h0a1.837,1.837,0,0,0,.228-.022c.036,0,.073,0,.109-.01a1.777,1.777,0,0,0,1.146-.756,1.739,1.739,0,0,0-.225-2.208l-9.781-9.689a2.51,2.51,0,0,1,.006-3.578,2.587,2.587,0,0,1,3.623.006l9.231,9.144.549.544a1.758,1.758,0,0,0,.282.227,1.788,1.788,0,0,0,.978.29h.007a1.78,1.78,0,0,0,1.128-.414c.04-.033.083-.06.12-.1h0c.025-.024.042-.053.065-.078a1.737,1.737,0,0,0,.425-.827c0-.013,0-.026,0-.039a1.768,1.768,0,0,0,.029-.3,1.744,1.744,0,0,0-.027-.285c0-.016,0-.034,0-.05a1.737,1.737,0,0,0-.412-.816c-.026-.03-.046-.063-.075-.091L241,512.241a2.506,2.506,0,0,1,.006-3.578,2.588,2.588,0,0,1,3.622.005l7.784,7.717a1.807,1.807,0,0,0,.279.226,1.768,1.768,0,0,0,.582.241c.019,0,.038.013.057.017a1.79,1.79,0,0,0,.226.022c.039,0,.076.011.115.011h0a1.789,1.789,0,0,0,.218-.021c.04-.005.08,0,.119-.011s.09-.027.135-.04a1.766,1.766,0,0,0,.782-.44,1.736,1.736,0,0,0,.5-1.525c0-.017,0-.035,0-.051a1.773,1.773,0,0,0-.086-.29c0-.011-.006-.024-.011-.036a1.751,1.751,0,0,0-.389-.582l-.561-.556-4.275-4.242a2.505,2.505,0,0,1,.006-3.577A2.588,2.588,0,0,1,253.724,505.535Z" transform="translate(349.686 591.061)" fill="#5352ed"/>
    <path id="Tracé_36" data-name="Tracé 36" d="M213.765,502.223a1.778,1.778,0,0,0,1.549-3.2,10.44,10.44,0,0,0-13.95,13.949,1.778,1.778,0,0,0,3.2-1.549,6.884,6.884,0,0,1,9.2-9.2Z" transform="translate(356.765 592.688)" fill="#5352ed"/>
    <path id="Tracé_37" data-name="Tracé 37" d="M192.186,512.577a1.778,1.778,0,0,0,.63-2.435,14.37,14.37,0,0,1,19.669-19.669,1.778,1.778,0,1,0,1.805-3.064,17.927,17.927,0,0,0-24.539,24.538,1.778,1.778,0,0,0,2.435.63Z" transform="translate(363.182 599.105)" fill="#5352ed"/>
  </g>
</svg>
