<svg id="Groupe_178" data-name="Groupe 178" xmlns="http://www.w3.org/2000/svg" width="72.68" height="55" viewBox="0 0 72.68 55">
  <path id="Tracé_27" data-name="Tracé 27" d="M426.829,372.885a1.625,1.625,0,0,0-1.685,1.557V393.49H359.2V362.55a2.974,2.974,0,0,1,3.08-2.847h47.252a1.562,1.562,0,1,0,0-3.114H362.284a6.227,6.227,0,0,0-6.45,5.961v35.023a6.227,6.227,0,0,0,6.45,5.961h21.658v4.941h-1.225a1.562,1.562,0,1,0,0,3.114h18.915a1.562,1.562,0,1,0,0-3.114h-1.225v-4.941h21.658a6.227,6.227,0,0,0,6.45-5.961V374.442A1.625,1.625,0,0,0,426.829,372.885Zm-29.792,35.59h-9.726v-4.941h9.726Zm25.027-8.055h-59.78a2.974,2.974,0,0,1-3.08-2.847V396.6h65.941v.969A2.974,2.974,0,0,1,422.064,400.42Z" transform="translate(-355.834 -356.589)" fill="#5352ed"/>
  <ellipse id="Ellipse_12" data-name="Ellipse 12" cx="1.974" cy="1.821" rx="1.974" ry="1.821" transform="translate(34.366 39.888)" fill="#5352ed"/>
  <path id="Tracé_28" data-name="Tracé 28" d="M375.345,392.268a2.167,2.167,0,0,0,1.472-.563l15.089-13.918a1.817,1.817,0,0,0,0-2.716,2.21,2.21,0,0,0-2.946,0l-15.089,13.918a1.817,1.817,0,0,0,0,2.717A2.17,2.17,0,0,0,375.345,392.268Z" transform="translate(-362.891 -364.643)" fill="#5352ed"/>
  <path id="Tracé_29" data-name="Tracé 29" d="M382.3,374.944a1.818,1.818,0,0,0,0-2.717,2.21,2.21,0,0,0-2.946,0l-8.327,7.681a1.817,1.817,0,0,0,0,2.717,2.208,2.208,0,0,0,2.945,0Z" transform="translate(-361.739 -363.368)" fill="#5352ed"/>
</svg>
