<svg xmlns="http://www.w3.org/2000/svg" width="56" height="55" viewBox="0 0 56 55">
  <g id="Groupe_117" data-name="Groupe 117" transform="translate(-937.506 -1083.691)">
    <path id="Tracé_44" data-name="Tracé 44" d="M234.744,703.834a11.264,11.264,0,0,0,6.954,2.4,11.471,11.471,0,0,0,2.583-.3,1.552,1.552,0,1,0-.7-3.025,8.193,8.193,0,1,1,6.319-8.083,1.553,1.553,0,0,0,1.552,1.527h.026a1.552,1.552,0,0,0,1.527-1.577,11.3,11.3,0,1,0-18.261,9.053Z" transform="translate(723.823 416.5)" fill="#5352ed"/>
    <path id="Tracé_45" data-name="Tracé 45" d="M246.034,672.548h0l-2.612-.659c-.009-.081-.018-.16-.028-.239a22.719,22.719,0,0,0-.822-3.863l2.088-1.6a3.688,3.688,0,0,0,.693-5.171l-5.178-6.778a3.687,3.687,0,0,0-5.17-.693l-2.11,1.611a22.735,22.735,0,0,0-3.714-1.883l.053-2.68a3.694,3.694,0,0,0-3.616-3.761l-8.529-.167a3.688,3.688,0,0,0-3.76,3.616l-.053,2.7a22.474,22.474,0,0,0-3.54,1.6l-2.023-1.715a3.688,3.688,0,0,0-5.2.428l-5.517,6.507a3.69,3.69,0,0,0,.428,5.2l2.036,1.726a22.559,22.559,0,0,0-1.048,4.044l-2.618.518a3.694,3.694,0,0,0-2.9,4.336L194.549,684a3.7,3.7,0,0,0,4.336,2.9l2.643-.524a22.74,22.74,0,0,0,2.517,3.323l-1.227,2.384a3.69,3.69,0,0,0,1.593,4.968l7.586,3.9a3.692,3.692,0,0,0,4.968-1.593l1.228-2.385a22.7,22.7,0,0,0,4.179.1l1.09,2.415a3.689,3.689,0,0,0,4.88,1.845l7.775-3.507a3.694,3.694,0,0,0,1.845-4.88l-1.1-2.447a22.921,22.921,0,0,0,2.668-3.2l2.609.66a3.689,3.689,0,0,0,4.481-2.673l2.09-8.27a3.69,3.69,0,0,0-2.673-4.481Zm-.343,3.718-2.089,8.271a.578.578,0,0,1-.7.419l-3.683-.931a1.554,1.554,0,0,0-1.7.689,19.769,19.769,0,0,1-3.567,4.271,1.555,1.555,0,0,0-.376,1.794l1.559,3.454a.58.58,0,0,1-.29.767l-7.775,3.507a.58.58,0,0,1-.766-.29l-1.546-3.427a1.555,1.555,0,0,0-1.417-.915,1.622,1.622,0,0,0-.184.011,19.582,19.582,0,0,1-5.574-.137,1.551,1.551,0,0,0-1.642.822l-1.734,3.37a.58.58,0,0,1-.78.251l-7.585-3.9a.578.578,0,0,1-.251-.779l1.734-3.372a1.554,1.554,0,0,0-.288-1.816,19.615,19.615,0,0,1-3.36-4.437,1.555,1.555,0,0,0-1.663-.772l-3.726.739a.577.577,0,0,1-.681-.455l-1.658-8.368a.578.578,0,0,1,.455-.681l3.707-.735a1.554,1.554,0,0,0,1.243-1.355,19.463,19.463,0,0,1,1.4-5.391,1.556,1.556,0,0,0-.428-1.788l-2.882-2.443a.578.578,0,0,1-.067-.816l5.517-6.507a.578.578,0,0,1,.394-.2.587.587,0,0,1,.422.136l2.869,2.432a1.554,1.554,0,0,0,1.835.129,19.439,19.439,0,0,1,4.845-2.194,1.554,1.554,0,0,0,1.112-1.46l.075-3.807a.58.58,0,0,1,.59-.568l8.528.168a.581.581,0,0,1,.569.591l-.074,3.786a1.553,1.553,0,0,0,1.055,1.5,19.677,19.677,0,0,1,4.961,2.516,1.553,1.553,0,0,0,1.835-.039l2.99-2.283a.58.58,0,0,1,.812.109l5.178,6.778a.579.579,0,0,1-.109.812l-2.97,2.269a1.555,1.555,0,0,0-.518,1.764,19.644,19.644,0,0,1,1.024,4.276c.044.353.077.731.106,1.191a1.555,1.555,0,0,0,1.171,1.411l3.688.932a.578.578,0,0,1,.419.7Z" transform="translate(744.687 437.021)" fill="#5352ed"/>
    <path id="Tracé_46" data-name="Tracé 46" d="M244.945,672.808a17.714,17.714,0,0,0-13.155-3.653,1.556,1.556,0,0,0,.379,3.089,14.724,14.724,0,1,1-12.827,16.4,1.556,1.556,0,1,0-3.089.378A17.843,17.843,0,0,0,233.921,704.7a18.105,18.105,0,0,0,2.2-.135,17.836,17.836,0,0,0,8.82-31.755Z" transform="translate(731.653 424.584)" fill="#5352ed"/>
  </g>
</svg>
