<svg id="Groupe_113" data-name="Groupe 113" xmlns="http://www.w3.org/2000/svg" width="71.624" height="55" viewBox="0 0 71.624 55">
  <path id="Tracé_30" data-name="Tracé 30" d="M405.753,518.61c-.006-.04-.007-.082-.016-.12a1.388,1.388,0,0,0-.052-.156c-.016-.045-.027-.091-.047-.133s-.05-.085-.075-.127a1.517,1.517,0,0,0-.084-.138c-.026-.034-.059-.065-.088-.1a1.633,1.633,0,0,0-.129-.137c-.005,0-.009-.011-.015-.016l-18.324-15.977c-.031-.027-.065-.045-.1-.07a1.534,1.534,0,0,0-.148-.105c-.047-.028-.1-.049-.143-.072s-.1-.049-.15-.068-.108-.033-.163-.047-.1-.029-.155-.038a1.793,1.793,0,0,0-.189-.017c-.041,0-.08-.012-.122-.012H365.03c-3.91,0-7.09,2.925-7.09,6.519v34.718a1.7,1.7,0,0,0,3.394,0V507.8a3.56,3.56,0,0,1,3.7-3.4h19.027v14.417a1.633,1.633,0,0,0,1.7,1.56h16.627V549.76a3.56,3.56,0,0,1-3.7,3.4H373.215a1.566,1.566,0,1,0,0,3.121h25.471c3.91,0,7.09-2.924,7.09-6.519V518.817c0-.007,0-.013,0-.02A1.493,1.493,0,0,0,405.753,518.61Zm-18.3-12.14,12.371,10.786H387.451Z" transform="translate(-357.94 -501.279)" fill="#5352ed"/>
  <path id="Tracé_31" data-name="Tracé 31" d="M383.535,566.529h21.8a1.607,1.607,0,1,0,0-3.2h-21.8a1.607,1.607,0,1,0,0,3.2Z" transform="translate(-370.238 -535.706)" fill="#5352ed"/>
  <path id="Tracé_32" data-name="Tracé 32" d="M383.535,580h21.8a1.607,1.607,0,1,0,0-3.2h-21.8a1.607,1.607,0,1,0,0,3.2Z" transform="translate(-370.238 -543.183)" fill="#5352ed"/>
  <path id="Tracé_33" data-name="Tracé 33" d="M407.067,591.874a1.674,1.674,0,0,0-1.736-1.6h-21.8a1.607,1.607,0,1,0,0,3.2h21.8A1.673,1.673,0,0,0,407.067,591.874Z" transform="translate(-370.238 -550.658)" fill="#5352ed"/>
  <path id="Tracé_34" data-name="Tracé 34" d="M479.326,501.279c-4.586,0-8.317,3.353-8.317,7.474v33.764c0,.013,0,.025,0,.038a1.514,1.514,0,0,0,.018.168c.007.048.012.1.024.144s.03.09.047.134a1.483,1.483,0,0,0,.066.163c.006.011.008.023.014.034l6.58,12.2a1.827,1.827,0,0,0,3.125,0l6.58-12.2c.006-.011.008-.023.014-.034a1.5,1.5,0,0,0,.066-.163,1.349,1.349,0,0,0,.046-.134,1.364,1.364,0,0,0,.024-.144,1.382,1.382,0,0,0,.019-.168c0-.013,0-.025,0-.038V508.753C487.642,504.632,483.912,501.279,479.326,501.279Zm2.2,45.778h-4.4l-1.607-2.98h7.618Zm-3.938-36.744v30.643h-3.108V510.313Zm6.58,0v30.643h-3.107V510.313Zm-4.843-5.913a4.861,4.861,0,0,1,4.516,2.792h-9.033A4.861,4.861,0,0,1,479.326,504.4Zm-.519,45.778h1.038l-.519.962Z" transform="translate(-416.019 -501.279)" fill="#5352ed"/>
</svg>
