<svg xmlns="http://www.w3.org/2000/svg" width="67.082" height="64.7" viewBox="0 0 67.082 64.7">
  <path id="Tracé_274" data-name="Tracé 274" d="M256.02,163.6q-.261,0-.52.014A24.953,24.953,0,0,0,242.276,150.4a9.659,9.659,0,0,0-19.271,0A24.96,24.96,0,0,0,209.78,163.61q-.258-.014-.52-.014a9.661,9.661,0,0,0,0,19.323c.175,0,.348-.005.52-.014A24.951,24.951,0,0,0,223,196.118a9.659,9.659,0,0,0,19.271,0A24.962,24.962,0,0,0,255.5,182.9c.172.009.345.014.52.014a9.661,9.661,0,0,0,0-19.323ZM232.64,144.29a6.779,6.779,0,1,1-6.779,6.779A6.787,6.787,0,0,1,232.64,144.29Zm-23.38,35.746a6.779,6.779,0,1,1,6.779-6.779A6.787,6.787,0,0,1,209.26,180.036Zm23.38,22.188a6.779,6.779,0,1,1,6.779-6.779A6.786,6.786,0,0,1,232.64,202.224Zm9.368-9.145a9.662,9.662,0,0,0-18.735,0,22.061,22.061,0,0,1-10.61-10.781,9.659,9.659,0,0,0,0-18.082,22.07,22.07,0,0,1,10.609-10.782,9.662,9.662,0,0,0,18.735,0,22.061,22.061,0,0,1,10.61,10.781,9.659,9.659,0,0,0,0,18.082A22.072,22.072,0,0,1,242.008,193.079Zm14.012-13.044a6.779,6.779,0,1,1,6.779-6.779A6.787,6.787,0,0,1,256.02,180.036Z" transform="translate(-199.099 -140.907)" fill="#5352ed" stroke="#5352ed" stroke-width="1"/>
</svg>
