<svg xmlns="http://www.w3.org/2000/svg" width="83.313" height="55.061" viewBox="0 0 83.313 55.061">
  <g id="Groupe_179" data-name="Groupe 179" transform="translate(-350.897 -156.833)">
    <path id="Tracé_291" data-name="Tracé 291" d="M410.48,172.515a1.813,1.813,0,0,0-1.813,1.813V197.7a5.262,5.262,0,0,1-6.675,5.067L376.59,191.5V171.621L402.1,160.3a1.812,1.812,0,1,0-1.47-3.313l-26.591,11.8c-.035.016-.066.036-.1.053h-9.835a5.4,5.4,0,0,0-5.389,5.389v.5h-2.434a5.393,5.393,0,0,0-5.387,5.387V183a5.393,5.393,0,0,0,5.387,5.387h2.434v.5a5.394,5.394,0,0,0,3.482,5.034v12.3a5.673,5.673,0,0,0,5.667,5.667h3.111a5.673,5.673,0,0,0,5.667-5.667v-10.74l23.989,10.643a1.8,1.8,0,0,0,.213.079,8.956,8.956,0,0,0,2.586.384,8.9,8.9,0,0,0,8.86-8.893V174.327A1.813,1.813,0,0,0,410.48,172.515Zm-48.137,1.713a1.766,1.766,0,0,1,1.764-1.764h8.858v17.977h-8.952a1.791,1.791,0,0,0-.54.091,1.764,1.764,0,0,1-1.13-1.642V174.228Zm-6.059,10.537A1.764,1.764,0,0,1,354.522,183v-2.886a1.764,1.764,0,0,1,1.762-1.762h2.434v6.41Zm14.694,23.5h-3.111a2.044,2.044,0,0,1-2.041-2.041V194.28h7.194v11.947A2.044,2.044,0,0,1,370.978,208.269Z" fill="#5352ed"/>
    <path id="Tracé_292" data-name="Tracé 292" d="M406.538,188.927v14.464a1.813,1.813,0,0,0,3.625,0V188.927a1.813,1.813,0,1,0-3.625,0Z" transform="translate(-26.826 -14.599)" fill="#5352ed"/>
    <path id="Tracé_293" data-name="Tracé 293" d="M481.468,201.373a1.813,1.813,0,1,0,0,3.625h13.007a1.813,1.813,0,1,0,0-3.625Z" transform="translate(-62.078 -21.474)" fill="#5352ed"/>
    <path id="Tracé_294" data-name="Tracé 294" d="M495.145,222.868l-13.007-5.179a1.813,1.813,0,1,0-1.341,3.368l13.007,5.179a1.813,1.813,0,1,0,1.341-3.368Z" transform="translate(-62.077 -29.279)" fill="#5352ed"/>
    <path id="Tracé_295" data-name="Tracé 295" d="M481.468,183.989a1.812,1.812,0,0,0,.67-.129l13.007-5.179a1.813,1.813,0,0,0-1.341-3.368L480.8,180.491a1.813,1.813,0,0,0,.671,3.5Z" transform="translate(-62.077 -8.847)" fill="#5352ed"/>
  </g>
</svg>
