<svg id="Groupe_116" data-name="Groupe 116" xmlns="http://www.w3.org/2000/svg" width="78.701" height="55" viewBox="0 0 78.701 55">
  <path id="Tracé_38" data-name="Tracé 38" d="M191.768,366.614a1.62,1.62,0,1,0,1.619,1.619A1.619,1.619,0,0,0,191.768,366.614Z" transform="translate(-182.864 -361.096)" fill="#5352ed"/>
  <path id="Tracé_39" data-name="Tracé 39" d="M201.853,366.614a1.62,1.62,0,1,0,1.619,1.619A1.62,1.62,0,0,0,201.853,366.614Z" transform="translate(-187.407 -361.096)" fill="#5352ed"/>
  <circle id="Ellipse_13" data-name="Ellipse 13" cx="1.619" cy="1.619" r="1.619" transform="translate(17.371 5.518)" fill="#5352ed"/>
  <path id="Tracé_40" data-name="Tracé 40" d="M248.024,356.589H184.5a7.6,7.6,0,0,0-7.59,7.59v30.883a1.824,1.824,0,0,0,3.648,0V369.583h71.4V404a3.946,3.946,0,0,1-3.941,3.941H197.39a1.824,1.824,0,0,0,0,3.648h50.633a7.6,7.6,0,0,0,7.59-7.59V364.179A7.6,7.6,0,0,0,248.024,356.589Zm-67.462,9.346v-1.756a3.946,3.946,0,0,1,3.942-3.941h63.521a3.946,3.946,0,0,1,3.941,3.941v1.756Z" transform="translate(-176.913 -356.589)" fill="#5352ed"/>
  <path id="Tracé_41" data-name="Tracé 41" d="M226.292,399.508a1.926,1.926,0,0,0-2.724,0l-9,9a1.925,1.925,0,0,0,0,2.724l9,9a1.926,1.926,0,0,0,2.724-2.724l-7.641-7.641,7.641-7.64A1.926,1.926,0,0,0,226.292,399.508Z" transform="translate(-194.869 -377.614)" fill="#5352ed"/>
  <path id="Tracé_42" data-name="Tracé 42" d="M268.031,420.237a1.927,1.927,0,0,0,2.724,0l9-9a1.925,1.925,0,0,0,0-2.724l-9-9a1.926,1.926,0,0,0-2.724,2.724l7.64,7.64-7.64,7.641A1.926,1.926,0,0,0,268.031,420.237Z" transform="translate(-220.754 -377.614)" fill="#5352ed"/>
  <path id="Tracé_43" data-name="Tracé 43" d="M241.414,421.437a1.927,1.927,0,0,0,1.779-1.187L253.567,395.3a1.926,1.926,0,1,0-3.557-1.479l-10.374,24.951a1.928,1.928,0,0,0,1.778,2.667Z" transform="translate(-207.251 -374.882)" fill="#5352ed"/>
</svg>
