<svg xmlns="http://www.w3.org/2000/svg" width="460.178" height="451.528" viewBox="0 0 460.178 451.528">
  <g id="Groupe_103" data-name="Groupe 103" transform="translate(-788.822 -906.101)">
    <rect id="Rectangle_9" data-name="Rectangle 9" width="25" height="128" transform="translate(1249 1152.5) rotate(90)" fill="#80cfe6"/>
    <g id="Groupe_95" data-name="Groupe 95" transform="translate(703.737 693.478)">
      <g id="Groupe_94" data-name="Groupe 94" transform="translate(85.085 212.623)">
        <g id="Groupe_93" data-name="Groupe 93">
          <g id="Groupe_92" data-name="Groupe 92">
            <path id="Tracé_225" data-name="Tracé 225" d="M291.6,404.621l-.323-.039q-9.08-2.018-18.263-3.518a78.9,78.9,0,0,0-16.737-1.255l-.065-.944a7.111,7.111,0,0,0-.065-1.177c-.466-3.764-3.673-6.946-7.295-8.278-4-1.487-8.407-1.229-12.663-.879-4.721.388-9.882.491-13.878,2.354l-1.759-11.6c-2.768-18.224,6.454-38.958,20.552-50.844a34.151,34.151,0,0,0,11.123,6.532c8.575,2.988,18.664,1.293,26.062-3.712,4.863,4.928,13.71,7.5,20.552,8.537,7.321,1.1,15.017,1.009,21.859-1.8s12.727-8.666,14.15-15.935l.285-.349c7.372,5.95,17.953,7.23,27.653,7.321a25.374,25.374,0,0,0,14.344-5.1,16.787,16.787,0,0,0,3.182-3.376l.453.323c10.878,28.08,20.048,57.376,20.565,87.487s-8.562,61.424-29.878,82.714c-7.114,7.114-16.491,12.9-26.528,17.151V477.492h-.026a19.524,19.524,0,0,0-.246-4.32h-.039c.517-3.4-3.35-6.2-6.7-7.631a129.659,129.659,0,0,0-61.178-10.024c3.79-5.2,4.734-9.7,4.553-17.073v-.013a3.782,3.782,0,0,0-.194-2.807c-.918-1.863-3.195-2.5-5.225-2.936l-15.185-3.712c.207-4.475.4-8.963.608-13.439a28.942,28.942,0,0,1,30.331,4.824c-.207-2.406-.272-4.824-.323-7.178A68.263,68.263,0,0,1,291.6,404.621Z" transform="translate(-45.48 -180.952)" fill="#2b4491"/>
            <path id="Tracé_226" data-name="Tracé 226" d="M275.749,254.321c-1.423,13.309-6.4,25.959-9.364,39.009-2.962,13.1-3.7,27.576,2.91,39.268a35.107,35.107,0,0,0,17.991,15.34l-.155.414a22.808,22.808,0,0,1-10.037,14.577c-7.4,5.006-17.487,6.7-26.062,3.712a34.151,34.151,0,0,1-11.123-6.532c-8.11-7.049-13.335-17.72-15-28.52-2.341-15.133,1.164-30.537,5.575-45.2,7.036-23.411,16.672-46.459,32.219-65.317,2.341-2.833,4.928-5.652,8.33-7.062a20.037,20.037,0,0,1,9.933-1.229c23.644,2.445,35.465,3.673,45.541,8.756,20.255,10.231,29.593,27.692,37.91,43.239,14.745,27.589,27.032,70.439,14.706,87.461a16.786,16.786,0,0,1-3.182,3.376,25.373,25.373,0,0,1-14.344,5.1c-9.7-.091-20.281-1.371-27.653-7.321a22.367,22.367,0,0,1-2.794-2.639,33.479,33.479,0,0,1-6.014-10.632c-.892-2.315-1.669-4.7-2.457-7.036A222.149,222.149,0,0,0,275.749,254.321Z" transform="translate(-44.28 -212.623)" fill="#cba71f"/>
            <path id="Tracé_227" data-name="Tracé 227" d="M336.894,438.552a19.524,19.524,0,0,1,.246,4.32,25.749,25.749,0,0,1-2.936,10.477c-3.169,6.3-8.42,12.029-13.451,17.086q-5.394,5.413-10.8,10.826-5.316,5.316-10.645,10.619-12.261,12.184-24.536,24.368-5.84,5.8-11.667,11.576-5.277,5.238-10.567,10.477a13.99,13.99,0,0,1-5.3,3.816c-.867-3.738-.828-10.593-.453-14.422l.026-.867a7.262,7.262,0,0,0,2.729-.323,11.833,11.833,0,0,0,4.229-2.936q41.907-39.249,80.942-81.446a8.24,8.24,0,0,0,1.992-2.91,3.051,3.051,0,0,0,.155-.66Z" transform="translate(-37.715 -146.332)" fill="#1f303f"/>
            <path id="Tracé_228" data-name="Tracé 228" d="M377.523,439.365c3.35,1.436,7.217,4.229,6.7,7.631a3.051,3.051,0,0,1-.155.66,8.24,8.24,0,0,1-1.992,2.91q-39,42.159-80.942,81.446a11.832,11.832,0,0,1-4.229,2.936,7.261,7.261,0,0,1-2.729.323,20.841,20.841,0,0,1-4.061-.776C221.123,516.129,152,497.737,85.1,472.839c17.164-24.523,40.018-46.007,64.619-63.067,1.2,5.613,2.755,11.835,4.747,18.832-.013,16.582,6.377,15.275,12.688,16.931,23.644,6.2,47.378,12.4,71.629,15.43a102.241,102.241,0,0,0,18.638.97,52.294,52.294,0,0,0,5.3-.569c14.344-2.25,26.968-10.464,38.828-18.845,5.368-3.777,10.761-7.722,14.667-13,.039-.065.091-.116.129-.181A129.659,129.659,0,0,1,377.523,439.365Z" transform="translate(-85.082 -154.777)" fill="#1f303f"/>
            <path id="Tracé_229" data-name="Tracé 229" d="M321.931,324.462l-.285.349c-1.423,7.269-7.295,13.128-14.15,15.935s-14.538,2.9-21.859,1.8c-6.842-1.035-15.689-3.609-20.552-8.537a22.808,22.808,0,0,0,10.037-14.577l.155-.414a33.711,33.711,0,0,0,6.92,1.837,35.112,35.112,0,0,0,28.895-8.989l2.031-.673a33.48,33.48,0,0,0,6.014,10.632A22.375,22.375,0,0,0,321.931,324.462Z" transform="translate(-32.271 -183.701)" fill="#f1ddc3"/>
            <path id="Tracé_230" data-name="Tracé 230" d="M306.365,463.2v8.692a105.421,105.421,0,0,1-10.8,2.134Q300.959,468.615,306.365,463.2Z" transform="translate(-23.327 -139.1)" fill="#2b4491"/>
            <path id="Tracé_231" data-name="Tracé 231" d="M278.046,297.776c-.841,2.367-1.6,4.8-2.251,7.23a4.714,4.714,0,0,0-.22,2.069c.31,1.72,2.38,2.82,2.419,4.579q.252-6.926.116-13.852Zm38,32.879-2.031.673a35.112,35.112,0,0,1-28.895,8.989,33.711,33.711,0,0,1-6.92-1.837,35.108,35.108,0,0,1-17.991-15.34c-6.609-11.692-5.872-26.166-2.91-39.268,2.962-13.051,7.942-25.7,9.364-39.009a222.15,222.15,0,0,1,46.925,78.756C314.378,325.959,315.154,328.339,316.047,330.654Z" transform="translate(-35.195 -203.164)" fill="#f1ddc3"/>
            <path id="Tracé_232" data-name="Tracé 232" d="M300.716,495.642c6.1,12.21,5.988,24.756,1.4,37.625-2.354,6.584-7.954,13.594-14.822,12.223-4.229-.841-7.269-4.8-8.33-8.976s-.711-7.075-.181-11.343c.466-.4.905-.828,1.319-1.242a114.057,114.057,0,0,0,20.087-27.252C300.367,496.34,300.548,495.991,300.716,495.642Z" transform="translate(-28.401 -129.581)" fill="#15181e"/>
            <path id="Tracé_233" data-name="Tracé 233" d="M307.188,496.635a7.6,7.6,0,0,1-.918,3.647v.013c-.168.349-.349.7-.53,1.035a114.058,114.058,0,0,1-20.087,27.252c-.414.414-.854.841-1.319,1.242a7.758,7.758,0,0,1-4.824,2.289,9.083,9.083,0,0,1-4.954-1.824c-4.863-3.091-11.641-10.063-15.211-14.564q5.84-5.781,11.667-11.576,12.281-12.184,24.536-24.368c4.449,4.462,6.273,7.1,9.752,12.352A9.185,9.185,0,0,1,307.188,496.635Z" transform="translate(-33.955 -134.235)" fill="#00b0e5"/>
            <path id="Tracé_234" data-name="Tracé 234" d="M231.411,423.082c-2.884,1.72-6.79-.88-7.657-4.126s.31-6.661,1.5-9.817c.155-.427.323-.841.479-1.268,2.483-6.558,5.329-13.283,10.153-18.172a23.257,23.257,0,0,1,5.174-4.023h.013a31.459,31.459,0,0,1,14.215-3.829,78.906,78.906,0,0,1,16.737,1.255q9.177,1.494,18.263,3.518l.323.039a68.269,68.269,0,0,0-.3,8.562c.052,2.354.116,4.773.323,7.178a28.942,28.942,0,0,0-30.331-4.824c-.207,4.475-.4,8.963-.608,13.439-.142,3.311-.349,6.816-2.173,9.584s-5.9,4.359-8.575,2.406l-.22-.065a7.458,7.458,0,0,1-1.035,2.2,4.217,4.217,0,0,1-6.622-.4l-.789-.22a5.074,5.074,0,0,1-5.51,1.164C232.73,424.919,232.433,425.023,231.411,423.082Z" transform="translate(-44.487 -162.991)" fill="#f1ddc3"/>
            <path id="Tracé_235" data-name="Tracé 235" d="M281.77,411.787a3.782,3.782,0,0,1,.194,2.807v.013a11.679,11.679,0,0,1-3.4,4.76c-9.429,8.782-18.936,17.6-29.761,24.588s-18.134,10.218-31.016,10.748q2.134-26.4,2.664-52.9c2.069,1.345,5.251,1.694,6.946.194-.155.427-.323.841-.479,1.268-1.19,3.156-2.38,6.558-1.5,9.817s4.773,5.846,7.657,4.126c1.022,1.94,1.319,1.837,3.363,2.6a5.073,5.073,0,0,0,5.51-1.164l.789.22a4.217,4.217,0,0,0,6.622.4,7.457,7.457,0,0,0,1.035-2.2l.22.065c2.677,1.953,6.739.362,8.575-2.406s2.031-6.273,2.173-9.584l15.185,3.712C278.575,409.291,280.852,409.925,281.77,411.787Z" transform="translate(-46.149 -157.115)" fill="#c4c3c3"/>
            <path id="Tracé_236" data-name="Tracé 236" d="M277.476,428.775c-.039.065-.091.116-.129.181-3.906,5.277-9.3,9.222-14.667,13-11.861,8.381-24.484,16.595-38.828,18.845a52.294,52.294,0,0,1-5.3.569l-.013-.142c-.323-3.13-.647-6.273-.97-9.4a2.109,2.109,0,0,0,.285-.026c12.882-.53,20.177-3.777,31.016-10.748s20.332-15.806,29.761-24.588a11.678,11.678,0,0,0,3.4-4.76C282.21,419.074,281.266,423.575,277.476,428.775Z" transform="translate(-46.214 -154.21)" fill="#7b7b7b"/>
            <path id="Tracé_237" data-name="Tracé 237" d="M256.723,382.331a7.108,7.108,0,0,1,.065,1.177l.065.944a31.459,31.459,0,0,0-14.215,3.829h-.013c-3.893-.233-10.4-3-14.021-4.423s-5.807-2.923-8.731-.349a13.2,13.2,0,0,0-.892-2.38,11.9,11.9,0,0,0-.867-1.474,10.645,10.645,0,0,1,4.773-4.126c4-1.863,9.157-1.966,13.878-2.354,4.255-.349,8.666-.608,12.663.88C253.05,375.385,256.258,378.567,256.723,382.331Z" transform="translate(-46.052 -165.594)" fill="#2b4491"/>
            <path id="Tracé_238" data-name="Tracé 238" d="M294.178,520.965l-.026.867c-.375,3.829-.414,10.684.453,14.422-2.1.673-4.359.323-6.532-.065a320.981,320.981,0,0,1-49.189-12.74c-9.338-3.221-18.509-6.868-27.847-10.089-35.672-12.274-72.509-17.6-107.082-31.158q-3.24-1.261-6.441-2.639Q91.248,476.9,85.1,473.781c-.039-4.682.026-10.567,0-15.249,66.908,24.9,136.028,43.291,205.019,61.657A20.851,20.851,0,0,0,294.178,520.965Z" transform="translate(-85.085 -140.47)" fill="#1f303f"/>
            <path id="Tracé_239" data-name="Tracé 239" d="M242.226,386.192a23.26,23.26,0,0,0-5.174,4.023c-2.988,1.772-10.606,6.713-13.581,8.485a20.214,20.214,0,0,0-3.4,2.445c.065-4.022.078-8.032.078-12.055a30.368,30.368,0,0,0-.673-7.67c2.923-2.574,5.1-1.073,8.731.349S238.333,385.959,242.226,386.192Z" transform="translate(-45.653 -163.506)" fill="#f1ddc3"/>
            <path id="Tracé_240" data-name="Tracé 240" d="M236.944,387.9c-4.824,4.889-7.67,11.615-10.153,18.172-1.694,1.5-4.876,1.151-6.946-.194.052-2.354.091-4.7.116-7.049a20.217,20.217,0,0,1,3.4-2.445C226.338,394.615,233.956,389.674,236.944,387.9Z" transform="translate(-45.545 -161.194)" fill="#f1ddc3"/>
            <path id="Tracé_241" data-name="Tracé 241" d="M245.223,388.138a30.368,30.368,0,0,1,.673,7.67c0,4.023-.013,8.032-.078,12.055a5.876,5.876,0,0,0-2.031,3.777,3.719,3.719,0,0,0,1.914,3.272q-.524,26.483-2.664,52.9a2.114,2.114,0,0,1-.285.026c-17.694,2.031-35.44-2.315-52.72-6.622q-20.856-5.18-41.687-10.386c-2.108-.517-4.359-1.125-5.769-2.781a10.206,10.206,0,0,1-1.8-4c-1.992-7-3.544-13.219-4.747-18.832-5.885-27.433-3.479-40.691-4.294-62.187a5.953,5.953,0,0,1,.905-3.919c3.906-5.355,18,1.255,38.88,6.221,29.1,6.92,54.737,11.162,54.737,11.162,6.428.828,13.646,2.6,17.2,7.786a11.907,11.907,0,0,1,.867,1.474A13.2,13.2,0,0,1,245.223,388.138Zm-42.178,28.339c.31-2.768.259-5.7-1.061-8.161s-4.178-4.255-6.881-3.609c-3.027.737-5.782,4.2-8.524,2.742a10.1,10.1,0,0,1-1.927-1.72,6.393,6.393,0,0,0-10.722,4.514l1.1-.039c2.1-.621,4.281,1.164,4.928,3.246s.155,4.333-.323,6.454a6.65,6.65,0,0,0-4.941,2.341,11.744,11.744,0,0,0,9.739,11.576c2.1.31,4.255.013,6.325.466,1.345.3,2.781.879,4.035.323a4.6,4.6,0,0,0,1.643-1.513A34.056,34.056,0,0,0,203.045,416.476Zm-8.537-20.552c1.28-2.988,1.474-6.325,1.656-9.571-6.312.543-11.2,9.752-8.782,15.612C190.615,401.576,193.228,398.925,194.508,395.924Z" transform="translate(-71.401 -170.224)" fill="#a0a09f"/>
            <path id="Tracé_242" data-name="Tracé 242" d="M241.668,457.521l.013.142a102.247,102.247,0,0,1-18.638-.97c-24.251-3.027-47.986-9.235-71.629-15.43-6.312-1.656-12.7-.349-12.688-16.931a10.207,10.207,0,0,0,1.8,4c1.41,1.656,3.66,2.264,5.769,2.781q20.837,5.2,41.687,10.386c17.28,4.307,35.026,8.653,52.72,6.622C241.021,451.248,241.344,454.391,241.668,457.521Z" transform="translate(-69.346 -150.505)" fill="#7b7b7b"/>
          </g>
        </g>
      </g>
      <path id="Tracé_243" data-name="Tracé 243" d="M271.817,245.993c-1.407,13.362-6.415,26.053-9.386,39.157s-3.71,27.578,2.9,39.276a34.595,34.595,0,0,0,53.8,8.189" transform="translate(51.393 9.791)" fill="none" stroke="#303030" stroke-linecap="round" stroke-linejoin="round" stroke-width="1.5"/>
      <path id="Tracé_244" data-name="Tracé 244" d="M280.641,255.309A222.15,222.15,0,0,1,327.8,334.328c2.124,6.228,4.087,12.761,8.467,17.672,7.326,8.213,19.445,9.845,30.451,9.954a25.368,25.368,0,0,0,14.348-5.092c17.328-13.891,4.328-61.185-11.526-90.836-8.314-15.551-17.651-33.014-37.907-43.243-10.074-5.087-21.9-6.309-45.538-8.754a19.98,19.98,0,0,0-9.941,1.224c-3.4,1.409-5.986,4.231-8.327,7.069-15.549,18.854-25.184,41.907-32.222,65.311-4.411,14.663-7.912,30.072-5.572,45.2s11.661,30.019,26.123,35.054,33.27-3.241,36.108-18.289" transform="translate(42.309 0.366)" fill="none" stroke="#303030" stroke-linecap="round" stroke-linejoin="round" stroke-width="1.5"/>
      <path id="Tracé_245" data-name="Tracé 245" d="M363.74,322.056c10.88,28.086,20.054,57.381,20.564,87.5s-8.56,61.426-29.868,82.714c-13.445,13.435-34.949,22.1-53.744,24.787" transform="translate(63.262 32.109)" fill="none" stroke="#303030" stroke-linecap="round" stroke-linejoin="round" stroke-width="1.5"/>
      <path id="Tracé_246" data-name="Tracé 246" d="M246.234,327.905c-14.1,11.877-23.318,32.608-20.555,50.832l1.766,11.611" transform="translate(41.109 33.825)" fill="none" stroke="#303030" stroke-linecap="round" stroke-linejoin="round" stroke-width="1.5"/>
      <path id="Tracé_247" data-name="Tracé 247" d="M335.785,375.378,303.5,373.421c-5.247-.317-10.884-.542-15.337,2.251-7.391,4.632-8.045,14.956-7.883,23.676.159,8.619.695,18.166,6.794,24.258a23.844,23.844,0,0,0,9.2,5.356c16.406,5.652,34.532.134,50.163-7.4,6.389-3.08,12.7-6.556,17.821-11.458s9.012-11.407,9.562-18.476" transform="translate(57.267 47.127)" fill="none" stroke="#303030" stroke-linecap="round" stroke-linejoin="round" stroke-width="1.5"/>
      <path id="Tracé_248" data-name="Tracé 248" d="M231.386,377.75c7.006.9,14.953,2.917,18.069,9.256,1.509,3.072,1.564,6.63,1.568,10.052q.047,36.038-2.856,72c-17.787,2.108-35.634-2.256-53.014-6.586L153.47,452.083c-2.1-.525-4.351-1.134-5.761-2.782a10.339,10.339,0,0,1-1.8-4c-11.745-41.187-8.057-55.115-9.049-81.031a6.007,6.007,0,0,1,.907-3.918c3.907-5.344,18.011,1.261,38.879,6.225C205.756,373.507,231.386,377.75,231.386,377.75Z" transform="translate(15.186 42.765)" fill="none" stroke="#303030" stroke-linecap="round" stroke-linejoin="round" stroke-width="1.5"/>
      <path id="Tracé_249" data-name="Tracé 249" d="M222.913,455.19c12.876-.521,20.177-3.766,31.01-10.746s20.329-15.808,29.761-24.588c2.16-2.011,4.517-4.928,3.213-7.576-.916-1.86-3.2-2.5-5.228-2.941l-15.181-3.712" transform="translate(40.441 56.63)" fill="none" stroke="#303030" stroke-linecap="round" stroke-linejoin="round" stroke-width="1.5"/>
      <path id="Tracé_250" data-name="Tracé 250" d="M143.851,429.294c-.009,16.582,6.373,15.269,12.691,16.924,23.644,6.2,47.37,12.41,71.623,15.434,7.948.992,16.032,1.635,23.944.395,14.345-2.251,26.97-10.465,38.833-18.837,5.361-3.783,10.76-7.728,14.658-13.005s4.868-9.808,4.682-17.262" transform="translate(17.243 58.777)" fill="none" stroke="#303030" stroke-linecap="round" stroke-linejoin="round" stroke-width="1.5"/>
      <path id="Tracé_251" data-name="Tracé 251" d="M222.655,443.68l1.009,9.782" transform="translate(40.365 67.795)" fill="none" stroke="#303030" stroke-linecap="round" stroke-linejoin="round" stroke-width="1.5"/>
      <path id="Tracé_252" data-name="Tracé 252" d="M170.586,400.8c2.091-.614,4.277,1.167,4.915,3.252s.16,4.328-.321,6.454a6.659,6.659,0,0,0-4.937,2.345,11.757,11.757,0,0,0,9.742,11.576c2.1.3,4.257.013,6.325.462,1.345.291,2.778.883,4.035.322a4.52,4.52,0,0,0,1.643-1.517A34.093,34.093,0,0,0,198.6,407.08c.31-2.769.247-5.705-1.068-8.163s-4.17-4.258-6.88-3.6c-3.021.728-5.785,4.195-8.529,2.733a10.149,10.149,0,0,1-1.917-1.71,6.391,6.391,0,0,0-10.729,4.509" transform="translate(24.762 53.411)" fill="none" stroke="#303030" stroke-linecap="round" stroke-linejoin="round" stroke-width="1.5"/>
      <path id="Tracé_253" data-name="Tracé 253" d="M180.026,396.584c-2.417-5.863,2.464-15.073,8.782-15.618-.181,3.253-.379,6.585-1.661,9.582s-3.885,5.642-7.122,6.036" transform="translate(27.672 49.394)" fill="none" stroke="#303030" stroke-linecap="round" stroke-linejoin="round" stroke-width="1.5"/>
      <path id="Tracé_254" data-name="Tracé 254" d="M295.412,387.87q-9.078-2.024-18.262-3.517c-11.367-1.846-24.1-2.761-33.33,4.127-6.966,5.2-10.394,13.77-13.445,21.91-1.181,3.151-2.371,6.558-1.5,9.809s4.783,5.855,7.667,4.123a26.789,26.789,0,0,1,7.25-21.829" transform="translate(42.102 49.998)" fill="none" stroke="#303030" stroke-linecap="round" stroke-linejoin="round" stroke-width="1.5"/>
      <path id="Tracé_255" data-name="Tracé 255" d="M234.734,418.711c1.022,1.94,1.309,1.838,3.362,2.61s4.691.233,5.846-1.632c1.066-1.72.638-3.919.586-5.942a15.043,15.043,0,0,1,5.126-11.592" transform="translate(43.909 55.611)" fill="none" stroke="#303030" stroke-linecap="round" stroke-linejoin="round" stroke-width="1.5"/>
      <path id="Tracé_256" data-name="Tracé 256" d="M242.5,389.149c-2.977,1.777-10.6,6.714-13.574,8.49-2.461,1.468-5.2,3.362-5.432,6.219-.288,3.567,6.181,5.849,8.855,3.469" transform="translate(40.608 51.795)" fill="none" stroke="#303030" stroke-linecap="round" stroke-linejoin="round" stroke-width="1.5"/>
      <path id="Tracé_257" data-name="Tracé 257" d="M242.2,419.711a4.205,4.205,0,0,0,6.618.4,8.014,8.014,0,0,0,1.138-2.526l4.191-13.2" transform="translate(46.101 56.268)" fill="none" stroke="#303030" stroke-linecap="round" stroke-linejoin="round" stroke-width="1.5"/>
      <path id="Tracé_258" data-name="Tracé 258" d="M248.288,421.193c2.685,1.95,6.744.365,8.573-2.406s2.033-6.269,2.182-9.587l.6-13.437a28.956,28.956,0,0,1,30.5,4.965" transform="translate(47.886 53.058)" fill="none" stroke="#303030" stroke-linecap="round" stroke-linejoin="round" stroke-width="1.5"/>
      <path id="Tracé_259" data-name="Tracé 259" d="M247.372,387.436c-3.894-.234-10.412-2.992-14.043-4.418s-5.811-2.926-8.741-.349" transform="translate(40.932 49.483)" fill="none" stroke="#303030" stroke-linecap="round" stroke-linejoin="round" stroke-width="1.5"/>
      <path id="Tracé_260" data-name="Tracé 260" d="M223.233,380.91c3.7-5.966,11.66-5.9,18.657-6.486,4.253-.354,8.663-.614,12.664.873s7.49,5.2,7.354,9.461" transform="translate(40.534 47.394)" fill="none" stroke="#303030" stroke-linecap="round" stroke-linejoin="round" stroke-width="1.5"/>
      <path id="Tracé_261" data-name="Tracé 261" d="M253.089,389.556V355.247" transform="translate(49.295 41.848)" fill="none" stroke="#303030" stroke-linecap="round" stroke-linejoin="round" stroke-width="1.5"/>
      <path id="Tracé_262" data-name="Tracé 262" d="M321.331,430.6a129.728,129.728,0,0,1,61.317,10.019c3.565,1.527,7.719,4.588,6.545,8.283a8.169,8.169,0,0,1-1.994,2.915q-38.985,42.169-80.943,81.451a12,12,0,0,1-4.229,2.936c-2.185.715-4.558.127-6.779-.464-69-18.355-138.117-36.75-205.031-61.647,17.162-24.533,40.021-46.007,64.622-63.072" transform="translate(1.505 58.212)" fill="none" stroke="#303030" stroke-linecap="round" stroke-linejoin="round" stroke-width="1.5"/>
      <path id="Tracé_263" data-name="Tracé 263" d="M251.909,508.723c-.378,3.819-.416,10.681.457,14.419" transform="translate(48.874 86.88)" fill="none" stroke="#303030" stroke-linecap="round" stroke-linejoin="round" stroke-width="1.5"/>
      <path id="Tracé_264" data-name="Tracé 264" d="M90.218,465.645c.034,4.677-.034,10.565,0,15.243,39.829,20.251,83.7,25.044,125.945,39.586,9.335,3.213,18.514,6.863,27.845,10.086A321.511,321.511,0,0,0,293.2,543.3c2.166.382,4.436.735,6.533.066s3.741-2.269,5.3-3.818L327.263,517.5q23.045-22.858,45.99-45.817c8.743-8.787,18.158-19.648,16.137-31.879" transform="translate(1.503 66.658)" fill="none" stroke="#303030" stroke-linecap="round" stroke-linejoin="round" stroke-width="1.5"/>
      <path id="Tracé_265" data-name="Tracé 265" d="M270.211,332.162c4.858,4.934,13.708,7.5,20.554,8.534,7.318,1.1,15.01,1.013,21.859-1.791s12.721-8.671,14.146-15.934" transform="translate(54.318 32.378)" fill="none" stroke="#303030" stroke-linecap="round" stroke-linejoin="round" stroke-width="1.5"/>
      <path id="Tracé_266" data-name="Tracé 266" d="M278.6,287.074q.138,6.928-.111,13.856c-.039-1.756-2.113-2.855-2.428-4.583a4.783,4.783,0,0,1,.226-2.062q.993-3.735,2.3-7.376" transform="translate(56.024 21.797)" fill="none" stroke="#303030" stroke-linecap="round" stroke-linejoin="round" stroke-width="1.5"/>
      <path id="Tracé_267" data-name="Tracé 267" d="M264.468,516.975c3.579,4.5,10.355,11.478,15.207,14.564a9.165,9.165,0,0,0,4.965,1.829c2.423-.06,4.427-1.824,6.14-3.539a114.081,114.081,0,0,0,20.084-27.25,7.158,7.158,0,0,0-.436-9.2c-3.479-5.254-5.3-7.894-9.752-12.355" transform="translate(52.633 78.753)" fill="none" stroke="#303030" stroke-linecap="round" stroke-linejoin="round" stroke-width="1.5"/>
      <path id="Tracé_268" data-name="Tracé 268" d="M283.911,526.422c-.539,4.275-.886,7.167.177,11.343s4.105,8.14,8.33,8.983c6.867,1.371,12.471-5.639,14.825-12.233,4.592-12.859,4.709-25.427-1.4-37.637" transform="translate(58.187 83.404)" fill="none" stroke="#303030" stroke-linecap="round" stroke-linejoin="round" stroke-width="1.5"/>
      <line id="Ligne_48" data-name="Ligne 48" y2="53.379" transform="translate(287.342 610.022)" fill="none" stroke="#303030" stroke-linecap="round" stroke-linejoin="round" stroke-width="1.5"/>
      <line id="Ligne_49" data-name="Ligne 49" y2="53.379" transform="translate(301.239 610.022)" fill="none" stroke="#303030" stroke-linecap="round" stroke-linejoin="round" stroke-width="1.5"/>
      <line id="Ligne_50" data-name="Ligne 50" y2="48.212" transform="translate(306.542 606.203)" fill="none" stroke="#303030" stroke-linecap="round" stroke-linejoin="round" stroke-width="1.5"/>
      <line id="Ligne_51" data-name="Ligne 51" y2="62.852" transform="translate(91.722 547.545)" fill="none" stroke="#303030" stroke-linecap="round" stroke-linejoin="round" stroke-width="1.5"/>
      <line id="Ligne_52" data-name="Ligne 52" y2="63.514" transform="translate(104.138 553.325)" fill="none" stroke="#303030" stroke-linecap="round" stroke-linejoin="round" stroke-width="1.5"/>
      <line id="Ligne_53" data-name="Ligne 53" y2="46.843" transform="translate(110.582 555.969)" fill="none" stroke="#303030" stroke-linecap="round" stroke-linejoin="round" stroke-width="1.5"/>
      <line id="Ligne_54" data-name="Ligne 54" y2="63.824" transform="translate(388.198 521.258)" fill="none" stroke="#303030" stroke-linecap="round" stroke-linejoin="round" stroke-width="1.5"/>
      <line id="Ligne_55" data-name="Ligne 55" y2="41.942" transform="translate(374.756 538.34)" fill="none" stroke="#303030" stroke-linecap="round" stroke-linejoin="round" stroke-width="1.5"/>
      <line id="Ligne_56" data-name="Ligne 56" y2="42.391" transform="translate(391.17 510.779)" fill="none" stroke="#303030" stroke-linecap="round" stroke-linejoin="round" stroke-width="1.5"/>
    </g>
  </g>
</svg>
