<svg xmlns="http://www.w3.org/2000/svg" width="28.63" height="28.672" viewBox="0 0 28.63 28.672">
  <g id="phone-call" transform="translate(-0.344)">
    <g id="Groupe_41" data-name="Groupe 41" transform="translate(0.344 0)">
      <path id="Tracé_12" data-name="Tracé 12" d="M22.983,43.509a2.82,2.82,0,0,0-2.045-.938,2.916,2.916,0,0,0-2.07.932l-1.912,1.906c-.157-.085-.315-.163-.466-.242-.218-.109-.424-.212-.6-.321a20.784,20.784,0,0,1-4.98-4.539A12.261,12.261,0,0,1,9.277,37.73c.5-.454.956-.926,1.4-1.38.169-.169.339-.345.508-.514a2.776,2.776,0,0,0,0-4.188L9.537,30c-.188-.188-.381-.381-.563-.575-.363-.375-.744-.762-1.138-1.126a2.865,2.865,0,0,0-2.027-.89,2.964,2.964,0,0,0-2.057.89l-.012.012L1.683,30.383A4.427,4.427,0,0,0,.369,33.2a10.608,10.608,0,0,0,.775,4.49,26.055,26.055,0,0,0,4.629,7.722,28.477,28.477,0,0,0,9.483,7.425,14.774,14.774,0,0,0,5.325,1.573c.127.006.26.012.381.012a4.56,4.56,0,0,0,3.492-1.5c.006-.012.018-.018.024-.03a13.757,13.757,0,0,1,1.059-1.1c.26-.248.526-.508.787-.781a3.019,3.019,0,0,0,.914-2.094,2.908,2.908,0,0,0-.932-2.076Zm2.166,6.372c-.006,0-.006.006,0,0-.236.254-.478.484-.738.738a15.911,15.911,0,0,0-1.168,1.21,2.917,2.917,0,0,1-2.275.962c-.091,0-.188,0-.278-.006a13.125,13.125,0,0,1-4.72-1.416,26.881,26.881,0,0,1-8.932-7,24.567,24.567,0,0,1-4.357-7.256A8.64,8.64,0,0,1,2,33.33a2.778,2.778,0,0,1,.835-1.8L4.9,29.47a1.376,1.376,0,0,1,.92-.43,1.294,1.294,0,0,1,.884.424l.018.018c.369.345.72.7,1.089,1.083.188.194.381.387.575.587L10.04,32.8a1.155,1.155,0,0,1,0,1.876c-.175.175-.345.351-.52.52-.508.52-.992,1-1.519,1.477-.012.012-.024.018-.03.03a1.234,1.234,0,0,0-.315,1.374l.018.054a13.263,13.263,0,0,0,1.955,3.189l.006.006a22.211,22.211,0,0,0,5.374,4.89,8.262,8.262,0,0,0,.744.405c.218.109.424.212.6.321.024.012.048.03.073.042a1.312,1.312,0,0,0,.6.151,1.294,1.294,0,0,0,.92-.418l2.07-2.07a1.369,1.369,0,0,1,.914-.454,1.232,1.232,0,0,1,.871.442l.012.012,3.334,3.334A1.2,1.2,0,0,1,25.15,49.881Z" transform="translate(-0.344 -25.748)" fill="#fff"/>
      <path id="Tracé_13" data-name="Tracé 13" d="M245.616,87.546a7.788,7.788,0,0,1,6.342,6.342.812.812,0,0,0,.8.678,1.079,1.079,0,0,0,.139-.012.818.818,0,0,0,.672-.944,9.417,9.417,0,0,0-7.673-7.673.821.821,0,0,0-.944.666A.808.808,0,0,0,245.616,87.546Z" transform="translate(-230.142 -80.726)" fill="#fff"/>
      <path id="Tracé_14" data-name="Tracé 14" d="M262.36,12.648A15.506,15.506,0,0,0,249.724.013a.816.816,0,1,0-.266,1.61A13.85,13.85,0,0,1,260.75,12.914a.812.812,0,0,0,.8.678,1.079,1.079,0,0,0,.139-.012A.8.8,0,0,0,262.36,12.648Z" transform="translate(-233.742 0)" fill="#fff"/>
    </g>
  </g>
</svg>
