<svg xmlns="http://www.w3.org/2000/svg" width="23.338" height="29.096" viewBox="0 0 23.338 29.096">
  <g id="placeholder" transform="translate(-47.2)">
    <g id="Groupe_42" data-name="Groupe 42" transform="translate(47.2)">
      <path id="Tracé_15" data-name="Tracé 15" d="M58.863,0A11.678,11.678,0,0,0,47.2,11.663a11.479,11.479,0,0,0,.207,2.19c.006.043.031.171.079.39a11.486,11.486,0,0,0,.781,2.3c1.257,2.958,4.02,7.5,10.083,12.37a.826.826,0,0,0,1.037,0c6.057-4.868,8.826-9.412,10.083-12.37a11.357,11.357,0,0,0,.781-2.3c.049-.22.073-.348.079-.39a11.994,11.994,0,0,0,.207-2.19A11.7,11.7,0,0,0,58.863,0ZM68.7,13.566c0,.012-.006.024-.006.037-.006.03-.024.122-.055.262v.012a9.684,9.684,0,0,1-.677,1.989c-.006.006-.006.018-.012.024-1.141,2.7-3.642,6.826-9.083,11.321-5.441-4.5-7.942-8.619-9.083-11.321-.006-.006-.006-.018-.012-.024a10.33,10.33,0,0,1-.677-1.989v-.012c-.037-.14-.049-.232-.055-.262,0-.012-.006-.024-.006-.043a10.015,10.015,0,1,1,19.666.006Z" transform="translate(-47.2)" fill="#fff"/>
      <path id="Tracé_16" data-name="Tracé 16" d="M124.405,71.9a7.405,7.405,0,1,0,7.405,7.405A7.417,7.417,0,0,0,124.405,71.9Zm0,13.163a5.758,5.758,0,1,1,5.758-5.758A5.765,5.765,0,0,1,124.405,85.063Z" transform="translate(-112.742 -67.514)" fill="#fff"/>
    </g>
  </g>
</svg>
