<svg xmlns="http://www.w3.org/2000/svg" width="1154" height="2529" viewBox="0 0 1154 2529">
  <g id="Groupe_104" data-name="Groupe 104" transform="translate(1 -1470)">
    <g id="Ellipse_5" data-name="Ellipse 5" transform="translate(721.308 1048.846)">
      <path id="Tracé_274" data-name="Tracé 274" d="M431.692,421.154a134,134,0,1,1-268,0" fill="none"/>
      <path id="Tracé_275" data-name="Tracé 275" d="M431.692,421.154c0,73.888-60.112,134-134,134s-134-60.112-134-134h40a94,94,0,1,0,188,0Z" fill="#fff"/>
    </g>
    <g id="Ellipse_27" data-name="Ellipse 27" transform="translate(-318.692 3605.333)">
      <path id="Tracé_276" data-name="Tracé 276" d="M317.692,221.667a86,86,0,1,1,0,172" fill="none"/>
      <path id="Tracé_277" data-name="Tracé 277" d="M317.692,353.667a46,46,0,0,0,0-92v-40a86,86,0,1,1,0,172Z" fill="#fff"/>
    </g>
  </g>
</svg>
