<svg xmlns="http://www.w3.org/2000/svg" width="118.934" height="100" viewBox="0 0 118.934 100">
  <g id="Groupe_51" data-name="Groupe 51" transform="translate(-187.276 -484.933)">
    <path id="Tracé_35" data-name="Tracé 35" d="M285.5,509.024l5.961,5.969.006.008.573.573.168.168,0,0L303.378,526.9a3.2,3.2,0,0,0,4.546-4.513l-11.317-11.305-6.559-6.57a11.087,11.087,0,0,0-15.618-.022,10.936,10.936,0,0,0-2.65,4.242,11.092,11.092,0,0,0-13.767,1.458,10.916,10.916,0,0,0-2.874,4.984,11.088,11.088,0,0,0-11.828,2.443,10.916,10.916,0,0,0-2.55,3.98l-7.649-7.642a11,11,0,0,0-7.8-3.232h-.017a10.989,10.989,0,0,0-7.82,18.765l29.612,29.579,0,0,2.908,2.905-7.906,1.019a11.693,11.693,0,0,0,1.5,23.295,11.807,11.807,0,0,0,1.514-.1l39.952-5.147a34.509,34.509,0,0,0,22.8-10,3.2,3.2,0,1,0-4.532-4.527,28.1,28.1,0,0,1-18.678,8.147c-.093,0-.186.012-.279.024l-40.087,5.165a5.335,5.335,0,0,1-5.962-4.578,5.305,5.305,0,0,1,4.6-5.939l14.367-1.85a3.193,3.193,0,0,0,1.862-5.427l-6.761-6.753,0,0-30.359-30.327a4.606,4.606,0,0,1,3.274-7.857h.007a4.609,4.609,0,0,1,3.268,1.354l32.375,32.341a3.279,3.279,0,0,0,.5.411c.057.037.12.06.179.094a3.206,3.206,0,0,0,.38.2c.072.029.148.042.221.066a3.159,3.159,0,0,0,.375.111c.08.016.162.015.244.024a3.134,3.134,0,0,0,.369.036h0a3.3,3.3,0,0,0,.412-.039c.065-.008.132-.006.2-.018a3.192,3.192,0,0,0,1.664-5.4l-17.653-17.639a4.615,4.615,0,0,1,6.55-6.5L271.043,538.8l.99.99a3.221,3.221,0,0,0,2.274.942h0l.012,0a3.2,3.2,0,0,0,2.036-.754c.072-.059.149-.109.216-.175h0c.045-.044.076-.1.117-.142a3.174,3.174,0,0,0,.767-1.506c0-.024,0-.048.007-.07a3.244,3.244,0,0,0,.053-.54,3.2,3.2,0,0,0-.049-.519c0-.03,0-.061-.008-.091a3.172,3.172,0,0,0-.743-1.486c-.048-.054-.083-.114-.135-.165l-14.049-14.051a4.591,4.591,0,0,1,.01-6.513,4.642,4.642,0,0,1,6.537.009l14.049,14.049a3.268,3.268,0,0,0,.5.411,3.175,3.175,0,0,0,1.05.439c.035.008.068.024.1.03a3.193,3.193,0,0,0,.407.04c.07,0,.138.02.207.02h0a3.174,3.174,0,0,0,.394-.037c.071-.009.144-.007.215-.02s.162-.049.244-.072a3.147,3.147,0,0,0,2.308-3.577c0-.031,0-.063-.008-.093a3.248,3.248,0,0,0-.156-.528c-.008-.021-.011-.044-.019-.065a3.192,3.192,0,0,0-.7-1.06l-1.012-1.012-7.715-7.722a4.589,4.589,0,0,1,.011-6.512A4.642,4.642,0,0,1,285.5,509.024Z" transform="translate(-2.65 -1.356)" fill="#5352ed"/>
    <path id="Tracé_36" data-name="Tracé 36" d="M224.587,505.64a3.21,3.21,0,0,0,2.8-5.779A18.843,18.843,0,0,0,202.2,525.039a3.21,3.21,0,0,0,5.779-2.8,12.424,12.424,0,0,1,16.6-16.6Z" transform="translate(-1.082 -1.082)" fill="#5352ed"/>
    <path id="Tracé_37" data-name="Tracé 37" d="M196.139,534.828a3.21,3.21,0,0,0,1.136-4.395,25.937,25.937,0,0,1,35.5-35.5,3.21,3.21,0,0,0,3.258-5.531,32.356,32.356,0,0,0-44.29,44.289,3.208,3.208,0,0,0,4.395,1.136Z" transform="translate(0)" fill="#5352ed"/>
  </g>
</svg>
