<svg xmlns="http://www.w3.org/2000/svg" width="122.137" height="100" viewBox="0 0 122.137 100">
  <g id="Groupe_49" data-name="Groupe 49" transform="translate(-355.834 -356.589)">
    <path id="Tracé_27" data-name="Tracé 27" d="M475.14,386.218a2.831,2.831,0,0,0-2.831,2.831v34.632H361.5V367.428a5.182,5.182,0,0,1,5.177-5.177h79.4a2.831,2.831,0,0,0,0-5.662h-79.4a10.851,10.851,0,0,0-10.839,10.839v63.678a10.851,10.851,0,0,0,10.839,10.839h36.4v8.983h-2.059a2.831,2.831,0,1,0,0,5.662H432.8a2.831,2.831,0,1,0,0-5.662h-2.059v-8.983h36.4a10.851,10.851,0,0,0,10.839-10.839V389.049A2.831,2.831,0,0,0,475.14,386.218Zm-50.066,64.709H408.73v-8.983h16.344Zm42.057-14.645H366.673a5.182,5.182,0,0,1-5.177-5.177v-1.762H472.309v1.762A5.183,5.183,0,0,1,467.131,436.282Z" fill="#5352ed"/>
    <circle id="Ellipse_12" data-name="Ellipse 12" cx="3.317" cy="3.317" r="3.317" transform="translate(413.586 429.102)" fill="#5352ed"/>
    <path id="Tracé_28" data-name="Tracé 28" d="M376.762,406.864a3.486,3.486,0,0,0,2.474-1.026l25.357-25.357a3.5,3.5,0,0,0-4.95-4.949l-25.356,25.357a3.5,3.5,0,0,0,2.475,5.975Z" fill="#5352ed"/>
    <path id="Tracé_29" data-name="Tracé 29" d="M390.386,377.639a3.5,3.5,0,0,0-4.95-4.95l-13.993,13.993a3.5,3.5,0,1,0,4.949,4.95Z" fill="#5352ed"/>
  </g>
</svg>
