<svg xmlns="http://www.w3.org/2000/svg" width="100.657" height="100" viewBox="0 0 100.657 100">
  <g id="Groupe_54" data-name="Groupe 54" transform="translate(-377.456 -648.432)">
    <path id="Tracé_47" data-name="Tracé 47" d="M478.113,665.557a17.176,17.176,0,0,0-17.188-17.125,2.889,2.889,0,1,0,0,5.779,11.4,11.4,0,0,1,11.015,8.457H383.63a11.4,11.4,0,0,1,11.014-8.457h33.093a2.889,2.889,0,1,0,0-5.779H394.644a17.176,17.176,0,0,0-17.188,17.125v6.466a6.443,6.443,0,0,0,6.448,6.423h10.828a6.442,6.442,0,0,0,6.447-6.423v-3.576h11.746v4.489a12.192,12.192,0,0,0-8.724,7.171c-.016.036-.031.073-.045.111L389.15,720.075a12.182,12.182,0,0,0,8.964,16.652v3.834a7.894,7.894,0,0,0,7.9,7.871h1.525a7.894,7.894,0,0,0,7.9-7.871v-3.612h24.692v3.612a7.894,7.894,0,0,0,7.9,7.871h1.525a7.894,7.894,0,0,0,7.9-7.871v-3.835a12.182,12.182,0,0,0,9.03-16.493l-14.356-39.857c-.012-.037-.027-.075-.043-.112a12.164,12.164,0,0,0-9.441-7.45v-4.366h11.746v3.625a6.443,6.443,0,0,0,6.447,6.425h10.828a6.444,6.444,0,0,0,6.447-6.425v-6.465c0-.008,0-.016,0-.025S478.113,665.566,478.113,665.557Zm-82.734,6.466a.647.647,0,0,1-.647.645H383.9a.648.648,0,0,1-.649-.645v-3.576h12.123Zm14.261,68.538a2.1,2.1,0,0,1-2.1,2.093h-1.525a2.1,2.1,0,0,1-2.1-2.093v-3.612h5.726Zm42.016,0a2.1,2.1,0,0,1-2.1,2.093H448.03a2.1,2.1,0,0,1-2.1-2.093v-3.612h5.726Zm-4.963-58.172,14.353,39.849c.013.037.027.075.043.112a6.409,6.409,0,0,1-5.957,8.819H400.438a6.408,6.408,0,0,1-5.923-8.9c.016-.036.03-.073.045-.111l15-39.848a6.42,6.42,0,0,1,5.9-3.863h25.294A6.405,6.405,0,0,1,446.693,682.389Zm-9.847-9.721H418.724v-4.221h18.122Zm35.468-.6a.647.647,0,0,1-.648.646H460.838a.647.647,0,0,1-.647-.646V668.5h12.123Z" transform="translate(0)" fill="#fff"/>
    <path id="Tracé_48" data-name="Tracé 48" d="M414.4,712.641a19.723,19.723,0,1,0,19.722-19.724A19.744,19.744,0,0,0,414.4,712.641Zm33.646,0a13.923,13.923,0,1,1-13.924-13.924A13.939,13.939,0,0,1,448.044,712.641Z" transform="translate(-6.336 -7.847)" fill="#fff"/>
    <path id="Tracé_49" data-name="Tracé 49" d="M437.643,713.456a2.707,2.707,0,1,0,2.708,2.707A2.706,2.706,0,0,0,437.643,713.456Z" transform="translate(-9.858 -11.356)" fill="#fff"/>
    <path id="Tracé_50" data-name="Tracé 50" d="M437.643,724.141a2.707,2.707,0,1,0,2.708,2.707A2.706,2.706,0,0,0,437.643,724.141Z" transform="translate(-9.858 -13.222)" fill="#fff"/>
    <path id="Tracé_51" data-name="Tracé 51" d="M426.48,719.949a2.707,2.707,0,1,0,3.828,0A2.706,2.706,0,0,0,426.48,719.949Z" transform="translate(-8.272 -12.352)" fill="#fff"/>
    <path id="Tracé_52" data-name="Tracé 52" d="M448.749,723.776a2.707,2.707,0,1,0-3.828,0A2.706,2.706,0,0,0,448.749,723.776Z" transform="translate(-11.435 -12.352)" fill="#fff"/>
    <path id="Tracé_53" data-name="Tracé 53" d="M434.878,705.363a2.707,2.707,0,1,0,2.708-2.707A2.707,2.707,0,0,0,434.878,705.363Z" transform="translate(-9.848 -9.47)" fill="#fff"/>
    <path id="Tracé_54" data-name="Tracé 54" d="M448.749,712.262a2.707,2.707,0,1,0-3.828,0A2.706,2.706,0,0,0,448.749,712.262Z" transform="translate(-11.435 -10.34)" fill="#fff"/>
    <path id="Tracé_55" data-name="Tracé 55" d="M426.48,708.434a2.707,2.707,0,1,0,3.828,0A2.706,2.706,0,0,0,426.48,708.434Z" transform="translate(-8.272 -10.34)" fill="#fff"/>
  </g>
</svg>
