<svg xmlns="http://www.w3.org/2000/svg" width="143.092" height="100" viewBox="0 0 143.092 100">
  <g id="Groupe_52" data-name="Groupe 52" transform="translate(-176.913 -356.589)">
    <path id="Tracé_38" data-name="Tracé 38" d="M193.091,366.614a2.942,2.942,0,1,0,2.942,2.942A2.942,2.942,0,0,0,193.091,366.614Z" transform="translate(-0.236 -1)" fill="#5352ed"/>
    <path id="Tracé_39" data-name="Tracé 39" d="M203.176,366.614a2.942,2.942,0,1,0,2.942,2.942A2.943,2.943,0,0,0,203.176,366.614Z" transform="translate(-1.32 -1)" fill="#5352ed"/>
    <circle id="Ellipse_13" data-name="Ellipse 13" cx="2.942" cy="2.942" r="2.942" transform="translate(208.913 365.614)" fill="#5352ed"/>
    <path id="Tracé_40" data-name="Tracé 40" d="M306.205,356.589H190.713a13.816,13.816,0,0,0-13.8,13.8v56.15a3.317,3.317,0,0,0,6.633,0V380.214H313.371V442.79a7.174,7.174,0,0,1-7.166,7.166H214.145a3.317,3.317,0,1,0,0,6.633h92.061a13.814,13.814,0,0,0,13.8-13.8v-72.4A13.815,13.815,0,0,0,306.205,356.589ZM183.546,373.581v-3.193a7.175,7.175,0,0,1,7.167-7.166H306.205a7.174,7.174,0,0,1,7.166,7.166v3.193Z" fill="#5352ed"/>
    <path id="Tracé_41" data-name="Tracé 41" d="M236.333,399.969a3.5,3.5,0,0,0-4.949,0l-16.357,16.357a3.5,3.5,0,0,0,0,4.95l16.357,16.357a3.5,3.5,0,0,0,4.949-4.949L222.451,418.8l13.882-13.882A3.5,3.5,0,0,0,236.333,399.969Z" transform="translate(-2.298 -3.556)" fill="#5352ed"/>
    <path id="Tracé_42" data-name="Tracé 42" d="M268.492,437.632a3.5,3.5,0,0,0,4.95,0L289.8,421.275a3.5,3.5,0,0,0,0-4.95l-16.357-16.357a3.5,3.5,0,0,0-4.95,4.95L282.374,418.8l-13.882,13.883A3.5,3.5,0,0,0,268.492,437.632Z" transform="translate(-5.61 -3.556)" fill="#5352ed"/>
    <path id="Tracé_43" data-name="Tracé 43" d="M242.988,444.968a3.5,3.5,0,0,0,3.232-2.157l18.849-45.334a3.5,3.5,0,1,0-6.463-2.687l-18.849,45.333a3.5,3.5,0,0,0,3.231,4.845Z" transform="translate(-3.954 -3.745)" fill="#5352ed"/>
  </g>
</svg>
