<svg xmlns="http://www.w3.org/2000/svg" width="102.09" height="100.266" viewBox="0 0 102.09 100.266">
  <g id="Groupe_53" data-name="Groupe 53" transform="translate(-192.82 -646.67)">
    <path id="Tracé_44" data-name="Tracé 44" d="M238.334,720.524a20.571,20.571,0,0,0,12.7,4.386,20.95,20.95,0,0,0,4.718-.541,2.835,2.835,0,1,0-1.278-5.524,14.962,14.962,0,1,1,11.54-14.76,2.835,2.835,0,0,0,2.834,2.789h.047a2.835,2.835,0,0,0,2.788-2.881,20.643,20.643,0,1,0-33.348,16.532Z" transform="translate(-7.144 -7.026)" fill="#5352ed"/>
    <path id="Tracé_45" data-name="Tracé 45" d="M289.83,693.847h0l-4.761-1.2c-.016-.147-.032-.292-.05-.435a41.407,41.407,0,0,0-1.5-7.042l3.807-2.909a6.723,6.723,0,0,0,1.263-9.426l-9.44-12.357a6.722,6.722,0,0,0-9.426-1.263l-3.847,2.938a41.461,41.461,0,0,0-6.77-3.433l.1-4.885a6.735,6.735,0,0,0-6.593-6.856l-15.548-.305a6.723,6.723,0,0,0-6.855,6.592l-.1,4.923a40.986,40.986,0,0,0-6.454,2.922l-3.687-3.126a6.723,6.723,0,0,0-9.479.781l-10.057,11.862a6.726,6.726,0,0,0,.78,9.479l3.712,3.146a41.128,41.128,0,0,0-1.911,7.372l-4.774.945a6.734,6.734,0,0,0-5.289,7.905l3.024,15.255a6.736,6.736,0,0,0,7.9,5.289l4.818-.955a41.457,41.457,0,0,0,4.589,6.058l-2.237,4.347a6.726,6.726,0,0,0,2.9,9.057l13.829,7.115a6.73,6.73,0,0,0,9.057-2.9l2.238-4.348a41.353,41.353,0,0,0,7.619.189l1.987,4.4a6.725,6.725,0,0,0,8.9,3.364l14.175-6.393a6.734,6.734,0,0,0,3.364-8.9l-2.013-4.462a41.777,41.777,0,0,0,4.864-5.826l4.756,1.2a6.725,6.725,0,0,0,8.169-4.873l3.81-15.077a6.727,6.727,0,0,0-4.872-8.169Zm-.625,6.779L285.4,715.7a1.054,1.054,0,0,1-1.282.765l-6.715-1.7a2.834,2.834,0,0,0-3.1,1.256,36.038,36.038,0,0,1-6.5,7.786,2.835,2.835,0,0,0-.685,3.27l2.841,6.3a1.058,1.058,0,0,1-.528,1.4l-14.175,6.393a1.058,1.058,0,0,1-1.4-.528L251.03,734.4a2.835,2.835,0,0,0-2.583-1.668,2.935,2.935,0,0,0-.336.019,35.692,35.692,0,0,1-10.161-.25,2.828,2.828,0,0,0-2.993,1.5l-3.16,6.143a1.058,1.058,0,0,1-1.422.457l-13.828-7.116a1.054,1.054,0,0,1-.457-1.421l3.162-6.146a2.833,2.833,0,0,0-.526-3.311,35.759,35.759,0,0,1-6.126-8.089,2.835,2.835,0,0,0-3.031-1.408l-6.793,1.347a1.052,1.052,0,0,1-1.242-.83l-3.023-15.254a1.054,1.054,0,0,1,.83-1.241l6.757-1.34a2.834,2.834,0,0,0,2.266-2.469,35.48,35.48,0,0,1,2.548-9.829,2.837,2.837,0,0,0-.781-3.259l-5.254-4.454a1.054,1.054,0,0,1-.121-1.488l10.057-11.863a1.054,1.054,0,0,1,.718-.369,1.07,1.07,0,0,1,.769.248l5.23,4.434a2.833,2.833,0,0,0,3.346.235,35.429,35.429,0,0,1,8.832-4,2.833,2.833,0,0,0,2.028-2.661l.137-6.941a1.056,1.056,0,0,1,1.076-1.035l15.547.305a1.06,1.06,0,0,1,1.037,1.077l-.135,6.9a2.832,2.832,0,0,0,1.924,2.74,35.887,35.887,0,0,1,9.044,4.587,2.831,2.831,0,0,0,3.345-.07l5.451-4.162a1.056,1.056,0,0,1,1.48.2l9.439,12.357a1.056,1.056,0,0,1-.2,1.481l-5.414,4.136a2.834,2.834,0,0,0-.945,3.215,35.813,35.813,0,0,1,1.866,7.8c.079.643.14,1.332.193,2.171a2.833,2.833,0,0,0,2.134,2.572l6.723,1.7a1.054,1.054,0,0,1,.765,1.282Z" transform="translate(0)" fill="#5352ed"/>
    <path id="Tracé_46" data-name="Tracé 46" d="M268.517,675.919a32.259,32.259,0,0,0-23.958-6.653,2.834,2.834,0,0,0,.69,5.626,26.818,26.818,0,1,1-23.361,29.877,2.834,2.834,0,1,0-5.626.688A32.5,32.5,0,0,0,248.441,734a32.969,32.969,0,0,0,4.012-.246,32.486,32.486,0,0,0,16.064-57.837Z" transform="translate(-4.452 -4.249)" fill="#5352ed"/>
  </g>
</svg>
