<svg xmlns="http://www.w3.org/2000/svg" width="118.833" height="100" viewBox="0 0 118.833 100">
  <g id="Groupe_96" data-name="Groupe 96" transform="translate(-288 -1813)">
    <path id="Tracé_30" data-name="Tracé 30" d="M437.268,532.79c-.01-.073-.012-.148-.027-.219a2.689,2.689,0,0,0-.087-.284c-.027-.081-.045-.165-.078-.242s-.083-.154-.125-.231a2.816,2.816,0,0,0-.14-.251c-.043-.062-.1-.118-.146-.178a2.848,2.848,0,0,0-.214-.25c-.009-.009-.015-.02-.025-.029l-30.4-29.049c-.051-.049-.109-.083-.163-.126a2.565,2.565,0,0,0-.245-.191c-.077-.05-.159-.088-.238-.13s-.163-.088-.249-.123a2.676,2.676,0,0,0-.27-.085c-.085-.024-.168-.053-.257-.069a2.721,2.721,0,0,0-.313-.032c-.068-.006-.133-.021-.2-.021H369.7a11.821,11.821,0,0,0-11.763,11.853v63.124a2.816,2.816,0,1,0,5.632,0V513.132a6.162,6.162,0,0,1,6.131-6.179h31.568v26.212A2.827,2.827,0,0,0,404.087,536h27.587v53.424a6.162,6.162,0,0,1-6.131,6.178h-42.26a2.837,2.837,0,0,0,0,5.674h42.26a11.821,11.821,0,0,0,11.763-11.852V533.166c0-.012,0-.023,0-.036A3.013,3.013,0,0,0,437.268,532.79ZM406.9,510.717l20.525,19.611H406.9Z" transform="translate(-69.94 1311.721)" fill="#5352ed"/>
    <path id="Tracé_31" data-name="Tracé 31" d="M384.68,569.087h36.161a2.881,2.881,0,0,0,0-5.762H384.68a2.881,2.881,0,1,0,0,5.762Z" transform="translate(-74.618 1299.924)" fill="#5352ed"/>
    <path id="Tracé_32" data-name="Tracé 32" d="M384.68,582.561h36.161a2.881,2.881,0,0,0,0-5.762H384.68a2.881,2.881,0,1,0,0,5.762Z" transform="translate(-74.618 1297.362)" fill="#5352ed"/>
    <path id="Tracé_33" data-name="Tracé 33" d="M423.722,593.153a2.882,2.882,0,0,0-2.881-2.881H384.68a2.881,2.881,0,1,0,0,5.762h36.161A2.882,2.882,0,0,0,423.722,593.153Z" transform="translate(-74.618 1294.801)" fill="#5352ed"/>
    <path id="Tracé_34" data-name="Tracé 34" d="M484.808,501.279a13.711,13.711,0,0,0-13.8,13.589v61.388c0,.024.007.045.007.069a2.964,2.964,0,0,0,.03.3c.012.088.021.176.04.261s.05.163.077.244a2.856,2.856,0,0,0,.109.3c.01.02.013.042.024.062l10.917,22.185a2.9,2.9,0,0,0,5.185,0l10.917-22.185c.01-.02.013-.042.023-.062a2.846,2.846,0,0,0,.11-.3c.027-.081.058-.161.077-.244s.029-.173.04-.261a2.746,2.746,0,0,0,.031-.3c0-.023.007-.045.007-.069V514.867A13.71,13.71,0,0,0,484.808,501.279Zm3.653,83.233h-7.307l-2.666-5.419h12.64ZM481.927,517.7v55.714h-5.156V517.7Zm10.917,0v55.714h-5.155V517.7Zm-8.036-10.751a8.041,8.041,0,0,1,7.493,5.077H477.314A8.041,8.041,0,0,1,484.808,506.953Zm-.861,83.233h1.722l-.861,1.749Z" transform="translate(-91.773 1311.721)" fill="#5352ed"/>
  </g>
</svg>
