<svg xmlns="http://www.w3.org/2000/svg" width="60.086" height="65.064" viewBox="0 0 60.086 65.064">
  <path id="Tracé_58" data-name="Tracé 58" d="M206.929,510.662a24.265,24.265,0,0,1-10.085-2.108,22.876,22.876,0,0,1-7.97-5.912,28.254,28.254,0,0,1-5.1-8.8,30.984,30.984,0,0,1-1.839-10.693,28.117,28.117,0,0,1,1.9-10.259,27.748,27.748,0,0,1,5.277-8.585,26.233,26.233,0,0,1,8.06-5.977,23.5,23.5,0,0,1,10.283-2.276,29.954,29.954,0,0,1,7.256.891,23.93,23.93,0,0,1,6.474,2.621,15.647,15.647,0,0,1,4.8,4.393,10.9,10.9,0,0,1,1.961,6.4,7.276,7.276,0,0,1-11.572,5.884,6.534,6.534,0,0,1-2.509-3.594,15.166,15.166,0,0,1-.461-5c.014-.757.029-1.54,0-2.429a2.722,2.722,0,0,0-.213-.889c-.06-.12-.118-.242-.175-.364a3.388,3.388,0,0,0-.24-.461l-.017-.023c-.056-.079-.111-.164-.164-.25l-.016-.025c-1.019-1.213-2.628-1.8-4.918-1.8a9.3,9.3,0,0,0-5.012,1.4,14.278,14.278,0,0,0-4.177,4,21.376,21.376,0,0,0-2.888,6.081,25.687,25.687,0,0,0-1.076,7.537c0,.361.035.73.072,1.121.025.262.049.523.066.789l.151,2.42a22.572,22.572,0,0,0,2.079,6.789l.062.125c.033.068.066.135.1.2.091.169.186.335.284.5.151.262.314.518.506.791l.015.022a11.833,11.833,0,0,0,9.793,5.279l.351,0,.355,0c4.63,0,9.4-4.075,11.085-9.478l.821-2.631,9.252,7.751-.446,1.213a23.187,23.187,0,0,1-2.478,5.151,23.855,23.855,0,0,1-4.992,5.34,22.244,22.244,0,0,1-6.683,3.59A24.611,24.611,0,0,1,206.929,510.662ZM197.4,462.348a22.334,22.334,0,0,0-5.572,4.426,24.078,24.078,0,0,0-4.574,7.451,24.456,24.456,0,0,0-1.652,8.922,27.326,27.326,0,0,0,1.615,9.429,24.591,24.591,0,0,0,4.434,7.662,19.235,19.235,0,0,0,6.7,4.967,20.624,20.624,0,0,0,8.574,1.783,20.959,20.959,0,0,0,6.792-1.061,18.582,18.582,0,0,0,5.59-3,20.18,20.18,0,0,0,4.227-4.518,16.57,16.57,0,0,0,1.611-3.154l-3.193-2.675c-2.717,5.667-8.114,9.562-13.618,9.562l-.379,0-.385,0a15.428,15.428,0,0,1-12.763-6.881c-.25-.358-.467-.7-.663-1.039-.116-.2-.235-.406-.349-.619l-.011-.02c-.052-.1-.1-.2-.149-.3l-.042-.085a27.126,27.126,0,0,1-2.7-10.754l-.014-1.029c-.026-.314-.046-.64-.046-.994a29.349,29.349,0,0,1,1.236-8.612,25.031,25.031,0,0,1,3.4-7.12A19.272,19.272,0,0,1,197.4,462.348Zm18.35-1a6.215,6.215,0,0,1,.592,1.059c.05.107.1.214.154.317l.055.1.041.109a6.449,6.449,0,0,1,.484,2.176c.028.977.012,1.841,0,2.6a12.019,12.019,0,0,0,.309,3.885l.021.073a2.906,2.906,0,0,0,1.152,1.617,3.421,3.421,0,0,0,2.1.683,3.715,3.715,0,0,0,3.613-3.613,7.2,7.2,0,0,0-1.29-4.287,12,12,0,0,0-3.685-3.358A19.052,19.052,0,0,0,215.527,461c.087.116.152.221.2.3Zm-3.14,1.9,0,0Z" transform="matrix(0.966, -0.259, 0.259, 0.966, -293.765, -381.111)" fill="#fff"/>
</svg>
